<svg width="102" height="100" fill="none" xmlns="http://www.w3.org/2000/svg"><path d="M50.77 0s30-1.31 45.91 28.26H48.22s-9.16-.3-16.96 10.6c-2.25 4.55-4.65 9.26-1.95 18.53-3.9-6.47-20.7-35.16-20.7-35.16S20.45 1.19 50.76 0Z" fill="#E16B5A"/><path d="M95.12 75.1s-13.84 26.14-47.91 24.85L71.45 58.8s4.84-7.63-.87-19.7c-2.9-4.19-11.7-8.58-21.24-10.93 7.67-.07 47.25.01 47.25.01s12.65 20.59-1.47 46.92Z" fill="#FFD464"/><path d="M6.63 75.3s-16.17-24.83 2-53.12l24.23 41.16s4.31 7.92 17.83 9.1c5.15-.36 10.51-.68 17.35-7.6A7178.62 7178.62 0 0 1 47.33 100s-24.51.45-40.7-24.7Z" fill="#74B340"/><ellipse cx="50.65" cy="50.41" rx="23.06" ry="22.66" fill="#fff"/><ellipse cx="50.64" cy="50.41" rx="18.29" ry="17.97" fill="#2995CC"/><path d="M50.64 32.44c-.36 0-.72.01-1.08.04 9.6.55 17.21 8.36 17.21 17.93s-7.61 17.39-17.2 17.94c.35.02.71.03 1.07.03 10.1 0 18.3-8.05 18.3-17.97 0-9.92-8.2-17.97-18.3-17.97Z" fill="#268CBF"/></svg>