<svg width="284" height="4" fill="none" xmlns="http://www.w3.org/2000/svg"><path fill-rule="evenodd" clip-rule="evenodd" d="M4 2a2 2 0 1 1-4 0 2 2 0 0 1 4 0Zm280 0a2 2 0 1 1-4 0 2 2 0 0 1 4 0Zm-19 2a2 2 0 1 0 0-4 2 2 0 0 0 0 4Zm-33-2a2 2 0 1 1-4 0 2 2 0 0 1 4 0Zm-37 2a2 2 0 1 0 0-4 2 2 0 0 0 0 4Zm-33-2a2 2 0 1 1-4 0 2 2 0 0 1 4 0Zm-20 2a2 2 0 1 0 0-4 2 2 0 0 0 0 4Zm-15-2a2 2 0 1 1-4 0 2 2 0 0 1 4 0Zm120 2a2 2 0 1 0 0-4 2 2 0 0 0 0 4Zm-33-2a2 2 0 1 1-4 0 2 2 0 0 1 4 0Zm-37 2a2 2 0 1 0 0-4 2 2 0 0 0 0 4Zm-68-2a2 2 0 1 1-4 0 2 2 0 0 1 4 0ZM90 4a2 2 0 1 0 0-4 2 2 0 0 0 0 4ZM74 2a2 2 0 1 1-4 0 2 2 0 0 1 4 0ZM55 4a2 2 0 1 0 0-4 2 2 0 0 0 0 4ZM39 2a2 2 0 1 1-4 0 2 2 0 0 1 4 0ZM20 4a2 2 0 1 0 0-4 2 2 0 0 0 0 4Z" fill="#495DCF" fill-opacity=".2"/></svg>