<svg width="1065" height="435" fill="none" xmlns="http://www.w3.org/2000/svg"><rect y="83" width="1000" height="352" rx="176" fill="#5267DF"/><rect x="529" width="536" height="346" rx="8" fill="#E8EAF6"/><mask id="a" style="mask-type:alpha" maskUnits="userSpaceOnUse" x="529" y="0" width="536" height="346"><rect x="529" width="536" height="346" rx="8" fill="#fff"/></mask><g mask="url(#a)"><path fill="#242A45" d="M525.47.2h547v59h-547z"/><circle opacity=".24" cx="567.47" cy="30.2" r="16" fill="#fff"/><circle opacity=".1" cx="1028.47" cy="30.2" r="16" fill="#fff"/><rect opacity=".75" x="598.47" y="20.2" width="120" height="6" rx="3" fill="#fff"/><rect opacity=".25" x="598.47" y="34.2" width="64" height="6" rx="3" fill="#fff"/><rect x="586" y="93" width="261" height="316" rx="8" fill="#fff"/><rect x="881" y="93" width="128" height="316" rx="8" fill="#fff"/><rect opacity=".5" x="664.47" y="131.2" width="120" height="6" rx="3" fill="#242A45"/></g><circle cx="633.47" cy="141.2" r="16" fill="#F98E5D"/><rect opacity=".25" x="901.47" y="115.2" width="88" height="6" rx="3" fill="#242A45"/><rect opacity=".25" x="901.47" y="135.2" width="88" height="6" rx="3" fill="#242A45"/><rect opacity=".25" x="901.47" y="155.2" width="88" height="6" rx="3" fill="#242A45"/><rect opacity=".25" x="901.47" y="175.2" width="88" height="6" rx="3" fill="#242A45"/><rect opacity=".25" x="901.47" y="209.2" width="88" height="6" rx="3" fill="#242A45"/><rect opacity=".25" x="901.47" y="229.2" width="88" height="6" rx="3" fill="#242A45"/><rect opacity=".25" x="901.47" y="249.2" width="88" height="6" rx="3" fill="#242A45"/><rect opacity=".25" x="664.47" y="145.2" width="64" height="6" rx="3" fill="#242A45"/><circle cx="633.47" cy="197.2" r="16" fill="#6AC6D6"/><rect opacity=".5" x="664.47" y="187.2" width="120" height="6" rx="3" fill="#242A45"/><rect opacity=".25" x="664.47" y="201.2" width="64" height="6" rx="3" fill="#242A45"/><circle cx="633.47" cy="253.2" r="16" fill="#A47ED4"/><rect opacity=".5" x="664.47" y="243.2" width="120" height="6" rx="3" fill="#242A45"/><rect opacity=".25" x="664.47" y="257.2" width="64" height="6" rx="3" fill="#242A45"/><circle cx="633.47" cy="309.2" r="16" fill="#EC7878"/><rect opacity=".5" x="664.47" y="299.2" width="120" height="6" rx="3" fill="#242A45"/><rect opacity=".25" x="664.47" y="313.2" width="64" height="6" rx="3" fill="#242A45"/></svg>