<svg width="105" height="100" fill="none" xmlns="http://www.w3.org/2000/svg"><path d="M105 50c0 28.86-23.51 50-52.5 50S0 76.59 0 47.73a51.94 51.94 0 0 1 6.62-25.37c-2.28-3.4-3.29-12.04 2.5-17.82 0 2.41 1.47 6.55 3.11 9.64 1.33 2.46 2.74 4.23 3.74 4 2.29-.54 10.27-.54 11.42 0 1.87-2.4 6.44-9.1 13.7-9.1-4.06 4.05-15.7 18.2 4.57 18.2h4.56l-13.7 9.08s1.56 3 0 4.55c-1.73-1.73-9.13 1.86-9.13 6.82 0 4.95 5.3 11.36 15.98 11.36 10.69 0 7.99-4.55 13.7-4.55 5.7 0 6.84 4.55 6.84 4.55-7.85 0-13.56 9.09-22.82 9.09 4.57 3.36 7.58 4.55 13.7 4.55a27.35 27.35 0 0 0 27.39-27.28c0-6.09-2.01-11.68-5.4-16.22a27.41 27.41 0 0 1 10.97 19.5c.82-3.19 1.28-6.6 1.28-10.1 0-13.68-5.84-31.77-15.98-38.63C87.65 4.36 105 18.47 105 45.45V50Z" fill="#FF9800"/></svg>