<svg width="148" height="25" fill="none" xmlns="http://www.w3.org/2000/svg"><path fill-rule="evenodd" clip-rule="evenodd" d="M51.7 19.04c1.05.61 2.24.92 3.55.92 1.3 0 2.49-.3 3.55-.92a6.71 6.71 0 0 0 2.51-2.53 7 7 0 0 0 .92-3.53 7 7 0 0 0-.92-3.53 6.71 6.71 0 0 0-2.5-2.53A6.97 6.97 0 0 0 55.24 6c-1.31 0-2.5.3-3.56.92a6.71 6.71 0 0 0-2.51 2.53 7 7 0 0 0-.91 3.53 7 7 0 0 0 .91 3.53 6.71 6.71 0 0 0 2.51 2.53ZM42.22 6.3H37v13.36h5.41c.81 0 1.55-.15 2.22-.45.66-.3 1.19-.74 1.58-1.31.4-.57.59-1.22.59-1.95 0-.76-.2-1.41-.62-1.95a3.5 3.5 0 0 0-1.66-1.19v-.15a3.06 3.06 0 0 0 1.8-2.87c0-.64-.19-1.22-.55-1.76a3.76 3.76 0 0 0-1.48-1.26 4.58 4.58 0 0 0-2.06-.47Zm1.13 5c-.33.3-.77.45-1.32.45h-2.52v-3.2h2.6c.52 0 .94.16 1.25.46.32.31.48.69.48 1.13 0 .46-.16.85-.5 1.15Zm-1.04 6.07c.61 0 1.09-.16 1.43-.48.34-.32.51-.73.51-1.24s-.17-.93-.52-1.25c-.35-.32-.85-.49-1.5-.49h-2.72v3.46h2.8Zm12.93.2c.82 0 1.57-.19 2.26-.58a4.18 4.18 0 0 0 1.61-1.62c.4-.7.59-1.5.59-2.39 0-.9-.2-1.7-.59-2.39-.4-.7-.93-1.24-1.61-1.62a4.52 4.52 0 0 0-2.26-.58c-.82 0-1.57.2-2.25.58a4.2 4.2 0 0 0-1.6 1.62c-.4.7-.6 1.5-.6 2.4 0 .89.2 1.68.6 2.38.38.7.92 1.24 1.6 1.62.68.39 1.43.58 2.25.58Zm11.8 1.47c1.06.61 2.24.92 3.55.92 1.3 0 2.5-.3 3.56-.92a6.71 6.71 0 0 0 2.5-2.53 7 7 0 0 0 .92-3.53 7 7 0 0 0-.91-3.53 6.71 6.71 0 0 0-2.51-2.53A6.97 6.97 0 0 0 70.6 6c-1.3 0-2.5.3-3.56.92a6.71 6.71 0 0 0-2.5 2.53 7 7 0 0 0-.92 3.53 7 7 0 0 0 .91 3.53 6.71 6.71 0 0 0 2.51 2.53Zm3.55-1.47c.82 0 1.57-.19 2.26-.58a4.18 4.18 0 0 0 1.61-1.62c.4-.7.6-1.5.6-2.39 0-.9-.2-1.7-.6-2.39-.39-.7-.93-1.24-1.61-1.62a4.52 4.52 0 0 0-2.26-.58c-.82 0-1.57.2-2.25.58a4.2 4.2 0 0 0-1.6 1.62c-.4.7-.6 1.5-.6 2.4 0 .89.2 1.68.6 2.38.39.7.92 1.24 1.6 1.62.68.39 1.43.58 2.25.58ZM82.35 6.3h-2.52v13.36h2.52v-3.92l1.51-1.77 4 5.7h3.08v-.16l-5.34-7.54 4.83-5.52V6.3H87.4l-4.89 5.73h-.15V6.3ZM93.78 6h3.25l3.54 9.39h.15L104.27 6h3.27v13.37h-2.5v-6.6l.14-2.22h-.15l-3.4 8.82h-1.95l-3.42-8.82h-.15l.15 2.23v6.59h-2.48V6Zm23.7 0h-2.9l-5 13.37h2.78l1.12-3.2h5.11l1.12 3.2h2.78L117.47 6Zm.3 7.86-1.19-3.36-.48-1.6h-.15l-.48 1.6-1.2 3.36h3.5ZM129.42 6h-4.88v13.37h2.52v-5.03h1.18l3.45 5.03h2.9v-.15L131 14.08l.02-.13c.82-.3 1.5-.78 2.04-1.44.55-.67.82-1.43.82-2.3 0-.8-.19-1.53-.56-2.17a3.9 3.9 0 0 0-1.58-1.5 4.87 4.87 0 0 0-2.32-.54Zm-.02 6.03c.57 0 1.03-.17 1.4-.52.36-.35.54-.8.54-1.33a1.82 1.82 0 0 0-1.9-1.85h-2.38v3.7h2.34ZM139.16 6h-2.52v13.37h2.52v-3.92l1.5-1.78 4 5.7h3.08v-.15l-5.34-7.55 4.84-5.52V6h-3.04l-4.9 5.73h-.14V6Z" fill="#fff"/><circle cx="12.5" cy="12.5" r="12.5" fill="#5267DF"/><path fill-rule="evenodd" clip-rule="evenodd" d="M11 7a2 2 0 0 0-2 2v10l3.54-3.44L16.08 19V9a2 2 0 0 0-2-2H11Z" fill="#fff"/></svg>