<svg width="1044" height="435" fill="none" xmlns="http://www.w3.org/2000/svg"><rect y="83" width="1000" height="352" rx="176" fill="#5267DF"/><rect x="604" width="350" height="346" rx="8" fill="#E8EAF6"/><mask id="a" style="mask-type:alpha" maskUnits="userSpaceOnUse" x="604" y="0" width="350" height="346"><rect x="604" width="350" height="346" rx="8" fill="#fff"/></mask><g mask="url(#a)"><path fill="#242A45" d="M600.47.2h547v59h-547z"/><circle opacity=".24" cx="642.47" cy="30.2" r="16" fill="#fff"/><rect opacity=".75" x="673.47" y="20.2" width="120" height="6" rx="3" fill="#fff"/><rect opacity=".25" x="673.47" y="34.2" width="64" height="6" rx="3" fill="#fff"/></g><rect x="631" y="85" width="237" height="34" rx="8" fill="#fff"/><rect x="631" y="133" width="237" height="34" rx="8" fill="#fff"/><rect x="631" y="181" width="237" height="34" rx="8" fill="#fff"/><rect x="631" y="229" width="237" height="34" rx="8" fill="#fff"/><rect x="631" y="277" width="237" height="34" rx="8" fill="#fff"/><mask id="b" style="mask-type:alpha" maskUnits="userSpaceOnUse" x="694" y="83" width="350" height="296"><path fill-rule="evenodd" clip-rule="evenodd" d="M1044 83.05H694.22V379H1044V83.05Z" fill="#fff"/></mask><g mask="url(#b)"><path fill-rule="evenodd" clip-rule="evenodd" d="M695.3 333.34c.66 2.02 1.7 4 3.17 5.94 25.2 33.47 119.37 44.63 212.22 37.8 48.48-3.55 82.67-24.52 104.28-43.74a174.9 174.9 0 0 0 13.36-13.22 60.88 60.88 0 0 0 10.91-16.9 57.52 57.52 0 0 0-5.12-55.16c-9.58-14.28-22.72-24.82-29.51-36.54-12.94-22.32 55.43-78.74 10.94-114.38-15.7-12.59-49.16-15.49-85.66-13.54-44.43 2.38-93.37 11.96-120.28 20.05-55.72 16.73-90.58 40.98-98.54 68.25-7.96 27.28 13.3 39.62 31.88 65.66 17.5 24.52-58.56 63-47.66 95.78Z" fill="#3A499E"/></g><path fill-rule="evenodd" clip-rule="evenodd" d="m789.45 173.87 16.99-2.87 2.56 15.8-21 6.2 1.45-19.13Z" fill="#306299"/><path fill-rule="evenodd" clip-rule="evenodd" d="M807 172.12s13.18-.35 27-6.12l-6.5 12.25-18.75 5.75-1.75-11.88Z" fill="#FA9E89"/><mask id="c" style="mask-type:alpha" maskUnits="userSpaceOnUse" x="884" y="85" width="158" height="220"><path fill-rule="evenodd" clip-rule="evenodd" d="M1042 85.05H884.17v219.84H1042V85.05Z" fill="#fff"/></mask><g mask="url(#c)"><path opacity=".15" fill-rule="evenodd" clip-rule="evenodd" d="M884.93 137.19c8.12 40.16 146.01 101.69 152.64 167.7a61.01 61.01 0 0 0-4.77-55.08c-8.91-14.25-21.15-24.78-27.47-36.49-12.04-22.28 51.6-78.61 10.19-114.2-14.62-12.57-45.76-15.47-79.74-13.52-10.35 2.37-58.16 15.33-50.85 51.59Z" fill="#fff"/></g><path opacity=".15" fill-rule="evenodd" clip-rule="evenodd" d="M692.18 326a21.96 21.96 0 0 0 3.64 15.23c22.43 32.67 144.5 43.56 227.13 36.9 43.15-3.47 78.51-25.71 100.05-50.21L692.18 326Z" fill="#000"/><path opacity=".13" fill-rule="evenodd" clip-rule="evenodd" d="M970.37 329.81s10.08.61 9.92 3.66c-.15 3.05-6.5 9.76-6.5 9.76l9.5-3.4 28.71-1.1-3.1 2.67s-23.13 1.07-24.16 1.88c-1.03.81-14.26 10.78-16.54 11.18-2.27.41-146.69.23-146.69.23s-14.85.59-17.33-3.99c-2.48-4.57-11.48-4.27-13.96-.3-2.48 3.96-2.13 18.6-2.13 18.6s-6.8-1.77-7.17-1.93C757.36 357.1 731 326 731 326l239.37 3.81Z" fill="#000"/><path fill-rule="evenodd" clip-rule="evenodd" d="m1001 290.7-14.45 49.16s-2.06 2.44-3.55.18l9.71-50.04 8.29.7ZM1020.87 289l7.13 33.14-3.4 3.86-9.6-36.05 5.87-.95Z" fill="#162F44"/><path fill-rule="evenodd" clip-rule="evenodd" d="m808.5 300.08-6.02 34.2-1 5.67 2.2.32.15.03 4.79.7s15.97-39.34 17.33-48.79C827.3 282.77 800.8 245 800.8 245l-28.76 2.45c-.76 8.22 10.74 23.7 21.02 35.77 8.1 9.5 15.45 16.86 15.45 16.86Z" fill="#F4F2F9"/><path fill-rule="evenodd" clip-rule="evenodd" d="m808.12 298.54-6.88 39.76 2.15.32.07.38.08-.35c.88-3.83 11.14-37.74 11.45-44.65.34-7.33-14.02-30-14.02-30L793 281.71a326.65 326.65 0 0 0 15.12 16.83Z" fill="#E0DFEA"/><path fill-rule="evenodd" clip-rule="evenodd" d="m770 249 28.67-2.39L800 198.9S793 174 785.33 174c-4.55 0-8.98 1.8-11.7 6.2-1.85 3-2.9 7.22-2.63 12.9.61 12.77-.73 48.9-.97 55.01l-.03.89Z" fill="#6397D9"/><path fill-rule="evenodd" clip-rule="evenodd" d="m777.88 245.28-.53-56.82 6.65-13.52-7.76-.94-2.73 3.21c-1.8 3-2.8 7.22-2.54 12.9.58 12.77-.74 49.78-.97 55.89l7.88-.72Z" fill="#8BBFF7"/><path fill-rule="evenodd" clip-rule="evenodd" d="m778 190 21.02 40 .54-18 .44-14.59-17.52-7.41H778Z" fill="#306299"/><path fill-rule="evenodd" clip-rule="evenodd" d="M831.67 353h128.66a8.7 8.7 0 0 0 8.67-8.73V123.73a8.7 8.7 0 0 0-8.67-8.73H831.67a8.7 8.7 0 0 0-8.67 8.73v220.54a8.7 8.7 0 0 0 8.67 8.73Z" fill="#fff"/><path fill-rule="evenodd" clip-rule="evenodd" d="M831 146.29v88.42a3.27 3.27 0 0 0 3.25 3.29h123.5c1.8 0 3.25-1.47 3.25-3.29v-88.42a3.27 3.27 0 0 0-3.25-3.29h-123.5a3.27 3.27 0 0 0-3.25 3.29Z" fill="#E4DCF1"/><path fill-rule="evenodd" clip-rule="evenodd" d="m895.15 167 1.55 1.18 3.3 14.37-.07 2.37-5.23.08c-.35 0-.71-.06-1.03-.25-1.5-.88-2.13-3.32-1.3-5.5.44-1.16 1.58-3.22 1.7-4.13.32-2.19 1.08-8.12 1.08-8.12Z" fill="#8E2B43"/><path fill-rule="evenodd" clip-rule="evenodd" d="m868 241 54.22-.2 1.8-.01s6.49-30.65-4.02-42.47a24.1 24.1 0 0 0-9.5-6.36c-11.28-4.3-25.46-1.46-28.5 7.96C878 212.37 868 241 868 241Z" fill="#4EC9B4"/><path fill-rule="evenodd" clip-rule="evenodd" d="M910.16 192.49s-2.21 6.02-7.1 7.3c-4.9 1.26-10.5-3.23-10.03-8.46 0 0 4.68-.7 5.44-2.96.93-2.77.31-2.86.31-2.86s-1.83-3.49-2.44-6.02c-.62-2.54.3-12.37 4.58-13.33 2.7-.6 7.03.32 10.08 4.76 0 0-1.53 8.57-3.67 12.69-2.13 4.12-3.2 6.02 2.83 8.88Z" fill="#FA9E89"/><path opacity=".18" fill-rule="evenodd" clip-rule="evenodd" d="M834.17 116.01 967 302.24v42.24a8.4 8.4 0 0 1-8.26 8.52H838.57c-5.28 0-9.57-4.42-9.57-9.87v-223.3c0-2.93 2.33-3.96 5.17-3.82Z" fill="#F4F2F9"/><path fill-rule="evenodd" clip-rule="evenodd" d="M874 222.44 867.02 192 856 193.82 866.68 238l7.32-15.56Z" fill="#4EC9B4"/><path fill-rule="evenodd" clip-rule="evenodd" d="m864.8 191.14-.6-3.1s1.8-1.2 1.5-2.97c-.3-1.77.3-5.91.3-5.91s-.96-.65-1.58.51c-.44.83-1.12 2.74-1.12 2.74s-2.3-6.17-2.83-7.8c-.22-.68-.45-1.76-.97-1.6-.28.1-.18.72-.13 1.34.14 1.84.93 4.78.93 4.78l-.4.24-1.66-5.28c-.08-.26-.2-.65-.47-.67-.23-.01-.47.12-.47.7 0 1.19 1.27 6.08 1.27 6.08l-.32.22-1.93-4.28c-.13-.32-.61-.3-.7.05-.06.27-.04.65.18 1.19.6 1.48 1.2 3.85 1.2 3.85l-.15.17-1.05-2.17c-.19-.35-.65-.57-.78-.2-.2.52 1.45 4.97 1.45 5.27 0 .3 1.13 4.32 2.33 4.62 1.2.3 1.27 3.08 1.27 3.08l4.73-.86Z" fill="#FA9E89"/><path fill-rule="evenodd" clip-rule="evenodd" d="M934.35 264h22.3c1.3 0 2.35-1.07 2.35-2.4v-3.2c0-1.33-1.05-2.4-2.35-2.4h-22.3a2.37 2.37 0 0 0-2.35 2.4v3.2c0 1.33 1.05 2.4 2.35 2.4ZM902.35 264h22.3c1.3 0 2.35-1.07 2.35-2.4v-3.2c0-1.33-1.05-2.4-2.35-2.4h-22.3a2.37 2.37 0 0 0-2.35 2.4v3.2c0 1.33 1.05 2.4 2.35 2.4ZM868.35 264h22.3c1.3 0 2.35-1.07 2.35-2.4v-3.2c0-1.33-1.05-2.4-2.35-2.4h-22.3a2.37 2.37 0 0 0-2.35 2.4v3.2c0 1.33 1.05 2.4 2.35 2.4ZM836.35 264h22.3c1.3 0 2.35-1.07 2.35-2.4v-3.2c0-1.33-1.05-2.4-2.35-2.4h-22.3a2.37 2.37 0 0 0-2.35 2.4v3.2c0 1.33 1.05 2.4 2.35 2.4Z" fill="#FFDEDD"/><path fill-rule="evenodd" clip-rule="evenodd" d="M838.55 283h117.9c1.41 0 2.55-1.08 2.55-2.41v-3.18a2.48 2.48 0 0 0-2.55-2.41h-117.9a2.48 2.48 0 0 0-2.55 2.41v3.18a2.48 2.48 0 0 0 2.55 2.41ZM956.45 299c1.41 0 2.55-1.08 2.55-2.41v-3.18a2.48 2.48 0 0 0-2.55-2.41h-117.9a2.48 2.48 0 0 0-2.55 2.41v3.18a2.48 2.48 0 0 0 2.55 2.41h117.9ZM838.55 315h117.9c1.41 0 2.55-1.08 2.55-2.41v-3.18a2.48 2.48 0 0 0-2.55-2.41h-117.9a2.48 2.48 0 0 0-2.55 2.41v3.18a2.48 2.48 0 0 0 2.55 2.41ZM838.55 328h117.9c1.41 0 2.55-1.08 2.55-2.41v-3.18a2.48 2.48 0 0 0-2.55-2.41h-117.9a2.48 2.48 0 0 0-2.55 2.41v3.18a2.48 2.48 0 0 0 2.55 2.41Z" fill="#F4F2F9"/><path fill-rule="evenodd" clip-rule="evenodd" d="M913.22 163.32s-6.3-8.85-18.19-3.72c-11.89 5.12 1.02 13.5 1.02 13.5s.25-3.26 2.13-4.2l-.15 2.9 6.66 1.17 1.06-2.8.69 3.19 3.35 1.24s-2.74 9.62-4.34 11.02c0 0-.69 2.25-.46 2.72.23.46 10.37 3.02 11.66.7 1.3-2.33-1.37-5.6-2.2-7.76-.85-2.18 1.51-13.72-1.23-17.96Z" fill="#FC516B"/><path fill-rule="evenodd" clip-rule="evenodd" d="M942.35 139h17.3c1.3 0 2.35-1.34 2.35-3s-1.05-3-2.35-3h-17.3c-1.3 0-2.35 1.34-2.35 3s1.05 3 2.35 3Z" fill="#E4DCF1"/><path fill-rule="evenodd" clip-rule="evenodd" d="M916 211s-2.66 19.29-5.7 27h-16.07s-2.65-8.14 10.05-10.8C913.1 225.35 916 211 916 211ZM884.39 206s-3.26 10-2.65 13c.61 3 3.26 5.2 3.26 7.2s-1.63 9.6-1.63 9.6l-9.37.2s1.56-.27 5.1-3.05c5.4-4.25.76-13.63 1.9-18.95.6-2.8 3.39-8 3.39-8ZM874 221.77s-.21 8.38-1.91 7.1c-1.7-1.3-.64-13.76-2.13-18.06-1.5-4.3-5.96-18.06-5.96-18.06l3.83-.75 6.17 29.77Z" fill="#44AD99"/><path fill-rule="evenodd" clip-rule="evenodd" d="M848.62 183.47s-1.57.7-3.5 3.05c-.63.78-4.03 2.02-4.83 2.99-11.64 14.02-27.2 24.84-37.16 20.53-12.73-5.5-15.13-10.62-15.13-10.62l8.41-11.36s9.67 14.76 17.44 10.74c7.77-4.02 23.09-14.56 23.09-14.56l.4-6.46s.9-.24 1.33 1c.43 1.23.45 2.3.45 2.3l6.05-7.03s1.16-.36.8.77c-.35 1.13-2.48 4.37-2.48 4.37s-.22.62.24.34c.54-.33 4.76-5.1 4.76-5.1s.98-.06.58.87c-.3.72-2.86 4.1-3.73 5.35-.26.38.28.24.28.24l3.5-2.97c.47-.32.96-.21.87.37-.08.46-1.03 1.52-1.6 1.94-1.4 1.04-2.4 2.95-2.4 2.95l3.05-1.1s.6.53-.42 1.4ZM777 146.49l3.85 28.32L793.5 177s-.64-.67-1.37-1.56c-.75-.9-1.59-2.05-1.96-2.97-.85-2.1-.86-4.06-.86-4.06s5.61.63 6.48-2.6c.87-3.23-1.14-18.28-1.14-18.28s-2.5-9.46-17.64-1.04Z" fill="#FA9E89"/><path fill-rule="evenodd" clip-rule="evenodd" d="M787.61 146.81s6.24 4.71 12.22.7c0 0-3.79-.35-4.97-2.27 0 0 2.36.61 5.14-3.31 0 0-4.89.7-6.57-.79-1.69-1.48-10.28-3.83-15.42-.26-5.14 3.58-5.06 6.2-5.06 6.2s-3.03 1.13-2.95 2.87c.09 1.75 7.5 16.05 7.5 16.05l1.6-6.37s-1.26.38-2.02-2.58c-.76-2.97 2.53-1.7 2.87-1.08.33.61 2.52-4.19 2.52-4.19l-.33-2.79s-1.1-3.57 5.47-2.18Z" fill="#261F27"/><path fill-rule="evenodd" clip-rule="evenodd" d="M775.79 279.38c3.59 14.5-3.05 72.41-3.05 72.41l6.5 1.21c26.15-60.01 20.17-109 20.17-109L770 246.41s.08-1.22.1-.93c.34 3 2.41 20.69 5.69 33.9Z" fill="#fff"/><path fill-rule="evenodd" clip-rule="evenodd" d="m808.27 337.08 7.55 5.86s2.98-.36 3.55 1.01c.57 1.38.63 2.93.63 2.93l-7.9.12-13.1-5.2 2.06-5.8 7.21 1.08ZM778.45 354.34s2.67 4.32 5.37 7.85c.9 1.19 3.11 1.7 3.97 4.6.74 2.49-.74 4.21-.74 4.21s-4.96-.9-8.42-3.96c-3.45-3.06-8.63-8.93-8.63-8.93l1.42-5.11 7.03 1.34Z" fill="#6397D9"/><path fill-rule="evenodd" clip-rule="evenodd" d="M978 282c0 3.87 12.98 7 29 7s29-3.13 29-7-12.98-7-29-7-29 3.13-29 7Z" fill="#224A7D"/><path fill-rule="evenodd" clip-rule="evenodd" d="M978 281c0 3.87 12.98 7 29 7s29-3.13 29-7-12.98-7-29-7-29 3.13-29 7Z" fill="#6397D9"/><path fill-rule="evenodd" clip-rule="evenodd" d="M999 277c0 1.66 5.37 3 12 3s12-1.34 12-3-5.37-3-12-3-12 1.34-12 3ZM1036 280v3.99s-.07 2.46-5 4.01l1.18-4.32s3.46-1.5 3.82-3.68Z" fill="#162F44"/><path fill-rule="evenodd" clip-rule="evenodd" d="M978 280v4.08s-.38 2.05 5 3.92l-1.65-4.77s-2.86-1.27-3.34-3.23Z" fill="#8CC5F2"/><path fill-rule="evenodd" clip-rule="evenodd" d="m997 267.04 1.97 7.69c.49 1.91 2.42 3.27 4.65 3.27h4.23c1.59 0 3.03-.69 3.9-1.77.31-.38.54-.81.7-1.28l1.7-5.31.85-2.64-18 .04Z" fill="#FC516B"/><path fill-rule="evenodd" clip-rule="evenodd" d="M997 266c0 .55 4.03 1 9 1s9-.45 9-1-4.03-1-9-1-9 .45-9 1Z" fill="#9B293F"/><path fill-rule="evenodd" clip-rule="evenodd" d="M1009.41 276.66c-.36.13-.69.25-1 .34l2.11-.32c.29-.4.51-.86.65-1.35l1.62-5.61.21-.72s-4.22 1.24-8 .82c1.23.16 4.31.41 6.17.32.46-.02.82.37.76.81-.23 1.66-.9 5.08-2.52 5.7Z" fill="#F995A9"/><path fill-rule="evenodd" clip-rule="evenodd" d="m1005 263.9.68 3.09.49.01s.03-3.1 3.68-5c3.65-1.9 3.12-9 3.12-9-.09.2-1.49 3.1-2.55 3.3-1.09.2-1.77 1.95-1.77 1.95s-.52.75-1.15.6c-.62-.15-1.25 1.5-1.25 1.5l-.21 1.75-1.04 1.8Z" fill="#51A595"/><path fill-rule="evenodd" clip-rule="evenodd" d="M1009.99 269.99s.7-23.44-11.6-29.99c0 0-3.5 1.35.6 6.97 4.1 5.61.8 9.67 2.6 11.12 1.8 1.46 4.4 2.4 4 4.27-.4 1.87.1 3.74.9 3.95.8.2 2.6 1.31 2.88 3.69l.62-.01Z" fill="#4EC9B4"/><path fill-rule="evenodd" clip-rule="evenodd" d="m1010 265.8.04 1.19.54.01s.03-3.1 3.99-5c3.97-1.9 3.4-9 3.4-9l-.34 1.08c0 6.45-3.72 7.78-5.21 8.65-1.49.86-2.42 3.07-2.42 3.07Z" fill="#41877A"/><path fill-rule="evenodd" clip-rule="evenodd" d="M790.18 177.1s-10.55.18-11.49-1.1l-.69 1.9s8.36 4.56 14 2.62l-1.82-3.42Z" fill="#306299"/><path fill-rule="evenodd" clip-rule="evenodd" d="M805 190.92 792.41 205s-16.82-15.08-16.4-19.81c.41-4.73 6.58-14.51 16.03-5.52 9.2 8.75 12.96 11.25 12.96 11.25Z" fill="#8CC5F2"/><path fill-rule="evenodd" clip-rule="evenodd" d="m772.57 352.65 2.56.35s12.03-42.47 8.07-73.85c-1.19-9.43-5.34-33.15-5.34-33.15l-7.86.74c.32 3.02 2.36 19.85 5.43 33.13 3.36 14.57-2.86 72.78-2.86 72.78Z" fill="#F4F2F9"/><path fill-rule="evenodd" clip-rule="evenodd" d="M786.25 175.56c1.5.32 2.3.43 2.75.44-.7-.97-1.48-2.18-1.83-3.16-.8-2.24-.8-4.33-.8-4.33s-2.97-.78-3.28-.41c-.3.37 0 6.77 3.16 7.46Z" fill="#E6846F"/><path fill-rule="evenodd" clip-rule="evenodd" d="M932 179c0 10.5 8.05 19 17.97 19 4.16 0 7.98-1.5 11.03-4v-30c-3.05-2.5-6.87-4-11.03-4-9.92 0-17.97 8.5-17.97 19Z" fill="#CEC3E2"/><path fill-rule="evenodd" clip-rule="evenodd" d="M932 179.5c0 10.22 7.5 18.5 16.73 18.5 3.87 0 7.43-1.45 10.27-3.9v-29.2a15.67 15.67 0 0 0-10.27-3.9c-9.24 0-16.73 8.28-16.73 18.5Z" fill="#C3B8D8"/><path fill-rule="evenodd" clip-rule="evenodd" d="M906 196.1s1.99-1.1 2.3-1.3c.31-.2 4.39.9 9.82 6.5 5.44 5.62.73 10.33 3.03 13.34 2.3 3 .1 9.32-1.04 13.63-1.15 4.31 0 9.72 0 9.72l.06.01h1.82s6.58-28.87-4.08-40c-2.6-2.7-5.97-4.7-9.64-6l-2.27 4.1Z" fill="#44AD99"/></svg>